<svg width="26" height="29" viewBox="0 0 26 29" fill="none" xmlns="http://www.w3.org/2000/svg">
<path d="M13 0C13.4744 0.000101316 13.9293 0.188636 14.2647 0.524135L24.9978 11.2573C25.3237 11.5946 25.504 12.0465 25.4999 12.5155C25.4959 12.9846 25.3077 13.4332 24.9761 13.7649C24.6444 14.0966 24.1957 14.2847 23.7267 14.2888C23.2577 14.2929 22.8058 14.1126 22.4684 13.7867L14.7889 6.10715V26.8328C14.7889 27.3072 14.6004 27.7623 14.2649 28.0977C13.9294 28.4332 13.4744 28.6217 13 28.6217C12.5256 28.6217 12.0706 28.4332 11.7351 28.0977C11.3996 27.7623 11.2111 27.3072 11.2111 26.8328V6.10715L3.53159 13.7867C3.19421 14.1126 2.74234 14.2929 2.27331 14.2888C1.80428 14.2847 1.35561 14.0966 1.02394 13.7649C0.692276 13.4332 0.504143 12.9846 0.500068 12.5155C0.495992 12.0465 0.676299 11.5946 1.00215 11.2573L11.7353 0.524135C12.0707 0.188636 12.5256 0.000101316 13 0Z" fill="#3F7F30"/>
</svg>
