<svg width="173" height="124" viewBox="0 0 173 124" fill="none" xmlns="http://www.w3.org/2000/svg">
<path d="M149.188 37.1628V37.1147C149.188 23.4318 138.097 12.3395 124.413 12.3395H64.5999L50.8566 1.35545C49.7587 0.478038 48.3951 0 46.9896 0H25.2752C11.5922 0 0.5 11.0922 0.5 24.7752V99.1008C0.5 112.784 11.5922 123.876 25.2752 123.876H139.864C148.119 123.876 155.383 118.43 157.7 110.507L172.182 60.9569C175.658 49.0626 166.739 37.1628 154.347 37.1628H149.188ZM25.2752 12.3876H44.8186L58.5618 23.3717C59.6597 24.2491 61.0233 24.7271 62.4288 24.7271H124.413C131.255 24.7271 136.801 30.2732 136.801 37.1147V37.1628H40.7582C32.4999 37.1628 25.2325 42.6133 22.9201 50.5414L12.8876 84.9387V24.7752C12.8876 17.9338 18.4338 12.3876 25.2752 12.3876ZM34.8122 54.0099C35.5831 51.3673 38.0054 49.5504 40.7582 49.5504H154.347C158.478 49.5504 161.451 53.517 160.291 57.4818L145.809 107.033C145.037 109.674 142.616 111.488 139.864 111.488H26.3061C22.1768 111.488 19.2038 107.524 20.3601 103.56L34.8122 54.0099Z" fill="#888381"/>
</svg>
