<svg width="100" height="101" viewBox="0 0 100 101" fill="none" xmlns="http://www.w3.org/2000/svg">
<path d="M40.0593 10.5C34.7864 10.5 29.7294 12.6071 26.0009 16.3579C22.2724 20.1086 20.1777 25.1957 20.1777 30.5C20.1777 35.8043 22.2724 40.8914 26.0009 44.6421C29.7294 48.3929 34.7864 50.5 40.0593 50.5C45.3322 50.5 50.3891 48.3929 54.1177 44.6421C57.8462 40.8914 59.9408 35.8043 59.9408 30.5C59.9408 25.1957 57.8462 20.1086 54.1177 16.3579C50.3891 12.6071 45.3322 10.5 40.0593 10.5ZM10.2369 30.5C10.2369 22.5435 13.3789 14.9129 18.9717 9.2868C24.5645 3.6607 32.1499 0.5 40.0593 0.5C47.9687 0.5 55.5541 3.6607 61.1469 9.2868C66.7396 14.9129 69.8816 22.5435 69.8816 30.5C69.8816 38.4565 66.7396 46.0871 61.1469 51.7132C55.5541 57.3393 47.9687 60.5 40.0593 60.5C32.1499 60.5 24.5645 57.3393 18.9717 51.7132C13.3789 46.0871 10.2369 38.4565 10.2369 30.5ZM73.9971 9.285C74.4587 8.82012 75.0069 8.45132 75.6103 8.1997C76.2137 7.94808 76.8605 7.81857 77.5137 7.81857C78.1668 7.81857 78.8136 7.94808 79.417 8.1997C80.0204 8.45132 80.5686 8.82012 81.0302 9.285C83.8 12.0708 85.9972 15.3782 87.4962 19.0183C88.9952 22.6584 89.7668 26.5599 89.7668 30.5C89.7668 34.4401 88.9952 38.3416 87.4962 41.9817C85.9972 45.6218 83.8 48.9292 81.0302 51.715C80.5684 52.1796 80.0202 52.5481 79.4168 52.7995C78.8134 53.0509 78.1667 53.1803 77.5137 53.1803C76.8606 53.1803 76.2139 53.0509 75.6105 52.7995C75.0071 52.5481 74.4589 52.1796 73.9971 51.715C73.5353 51.2504 73.169 50.6989 72.9191 50.092C72.6691 49.485 72.5405 48.8345 72.5405 48.1775C72.5405 47.5205 72.6691 46.87 72.9191 46.263C73.169 45.6561 73.5353 45.1046 73.9971 44.64C77.7243 40.8894 79.8182 35.8033 79.8182 30.5C79.8182 25.1967 77.7243 20.1106 73.9971 16.36C73.535 15.8956 73.1684 15.3442 72.9182 14.7372C72.6681 14.1302 72.5394 13.4796 72.5394 12.8225C72.5394 12.1654 72.6681 11.5148 72.9182 10.9078C73.1684 10.3008 73.535 9.74937 73.9971 9.285ZM77.4863 74.285C77.8067 72.9998 78.6211 71.8951 79.7507 71.2136C80.8802 70.532 82.2325 70.3293 83.5104 70.65C90.1111 72.31 94.2912 76.55 96.6919 81.39C99.018 86.065 99.704 91.29 99.704 95.5C99.704 96.8261 99.1803 98.0979 98.2482 99.0355C97.316 99.9732 96.0518 100.5 94.7336 100.5C93.4153 100.5 92.1511 99.9732 91.219 99.0355C90.2868 98.0979 89.7632 96.8261 89.7632 95.5C89.7632 92.215 89.2065 88.685 87.8049 85.86C86.4778 83.195 84.4399 81.19 81.0998 80.35C79.8222 80.0277 78.7241 79.2084 78.0465 78.0722C77.369 76.9359 77.1675 75.5706 77.4863 74.285ZM22.6629 80.5C16.4002 80.5 10.2369 86.565 10.2369 95.5C10.2369 96.8261 9.71326 98.0979 8.78113 99.0355C7.849 99.9732 6.58476 100.5 5.26653 100.5C3.9483 100.5 2.68407 99.9732 1.75194 99.0355C0.819807 98.0979 0.296143 96.8261 0.296143 95.5C0.296143 82.34 9.70509 70.5 22.6629 70.5H57.4556C70.4135 70.5 79.8224 82.34 79.8224 95.5C79.8224 96.8261 79.2987 98.0979 78.3666 99.0355C77.4345 99.9732 76.1702 100.5 74.852 100.5C73.5338 100.5 72.2695 99.9732 71.3374 99.0355C70.4053 98.0979 69.8816 96.8261 69.8816 95.5C69.8816 86.565 63.7183 80.5 57.4556 80.5H22.6629Z" fill="#83B759"/>
</svg>
