<svg width="173" height="173" viewBox="0 0 173 173" fill="none" xmlns="http://www.w3.org/2000/svg">
<path d="M95.5792 77.7325V29.8207C95.5792 28.6744 95.1238 27.5752 94.3133 26.7647C93.5028 25.9542 92.4035 25.4988 91.2573 25.4988H82.6137C81.4674 25.4988 80.3682 25.9542 79.5576 26.7647C78.7471 27.5752 78.2918 28.6744 78.2918 29.8207V84.2153C78.2921 85.3614 78.7476 86.4605 79.5581 87.2708L106.786 114.498C107.596 115.309 108.695 115.764 109.841 115.764C110.987 115.764 112.086 115.309 112.897 114.498L118.671 108.724C119.481 107.914 119.936 106.815 119.936 105.669C119.936 104.523 119.481 103.424 118.671 102.613L96.8282 80.7708C96.0282 79.9619 95.5794 78.8702 95.5792 77.7325Z" fill="#A67C00"/>
<path d="M156.357 94.6482C154.744 107.655 149.51 119.948 141.253 130.126C132.995 140.304 122.045 147.959 109.65 152.219C97.2543 156.478 83.912 157.171 71.1421 154.219C58.3721 151.267 46.6879 144.788 37.42 135.52C28.1521 126.252 21.6731 114.568 18.7208 101.798C15.7686 89.028 16.4616 75.6857 20.7212 63.2904C24.9807 50.8951 32.6355 39.945 42.8138 31.6873C52.9921 23.4296 65.2847 18.1961 78.2918 16.5829V0C62.0151 1.6361 46.5368 7.85754 33.6556 17.9414C20.7744 28.0252 11.0192 41.5573 5.52358 56.9653C0.0279372 72.3733 -0.982475 89.0245 2.60975 104.984C6.20198 120.943 14.2494 135.556 25.8167 147.123C37.3841 158.691 51.9965 166.738 67.956 170.33C83.9155 173.922 100.567 172.912 115.975 167.416C131.383 161.921 144.915 152.166 154.999 139.284C165.082 126.403 171.304 110.925 172.94 94.6482H156.357ZM122.249 7.16992C113.805 3.35451 104.798 0.933137 95.5792 0V16.5829C101.917 17.3816 108.114 19.0512 113.994 21.5443L122.249 7.16992ZM143.232 44.597L157.684 36.5152C152.09 28.5014 145.185 21.4882 137.259 15.7704L128.974 30.1967C134.392 34.2891 139.193 39.1388 143.232 44.597ZM151.655 59.7018C153.998 65.3538 155.579 71.2921 156.357 77.3608H172.94C172.042 68.4672 169.759 59.7687 166.172 51.5811L151.655 59.7018Z" fill="#A67C00"/>
</svg>
