<svg width="26" height="23" viewBox="0 0 26 23" fill="none" xmlns="http://www.w3.org/2000/svg">
<path d="M17.9613 14.9732L19.3502 13.5843C19.5673 13.3673 19.9449 13.5192 19.9449 13.8317V20.1426C19.9449 21.2928 19.0117 22.226 17.8615 22.226H2.58338C1.43318 22.226 0.5 21.2928 0.5 20.1426V4.86447C0.5 3.71427 1.43318 2.78109 2.58338 2.78109H14.4543C14.7625 2.78109 14.9187 3.15436 14.7017 3.37572L13.3128 4.76464C13.2477 4.82975 13.1609 4.86447 13.0654 4.86447H2.58338V20.1426H17.8615V15.2163C17.8615 15.1251 17.8962 15.0383 17.9613 14.9732ZM24.7583 6.21433L13.3605 17.6121L9.43682 18.0462C8.29965 18.1721 7.33174 17.2128 7.45762 16.067L7.89165 12.1433L19.2895 0.745459C20.2834 -0.248486 21.8893 -0.248486 22.879 0.745459L24.754 2.6205C25.7479 3.61444 25.7479 5.22472 24.7583 6.21433ZM20.47 7.5555L17.9483 5.03375L9.88388 13.1025L9.56704 15.9368L12.4013 15.6199L20.47 7.5555ZM23.2826 4.09623L21.4076 2.22119C21.2296 2.04323 20.9388 2.04323 20.7652 2.22119L19.424 3.56236L21.9458 6.08412L23.287 4.74294C23.4606 4.56065 23.4606 4.27418 23.2826 4.09623Z" fill="#3F7F30"/>
</svg>
