<svg width="26" height="25" viewBox="0 0 26 25" fill="none" xmlns="http://www.w3.org/2000/svg">
<path d="M6.75 2.5C6.75 1.83696 7.01339 1.20107 7.48223 0.732233C7.95107 0.263392 8.58696 0 9.25 0H16.75C17.413 0 18.0489 0.263392 18.5178 0.732233C18.9866 1.20107 19.25 1.83696 19.25 2.5V5H24.25C24.5815 5 24.8995 5.1317 25.1339 5.36612C25.3683 5.60054 25.5 5.91848 25.5 6.25C25.5 6.58152 25.3683 6.89946 25.1339 7.13388C24.8995 7.3683 24.5815 7.5 24.25 7.5H22.9137L21.83 22.6775C21.7851 23.3082 21.5029 23.8985 21.0401 24.3295C20.5774 24.7604 19.9686 25 19.3363 25H6.6625C6.03017 25 5.42133 24.7604 4.95861 24.3295C4.49588 23.8985 4.21365 23.3082 4.16875 22.6775L3.0875 7.5H1.75C1.41848 7.5 1.10054 7.3683 0.866116 7.13388C0.631696 6.89946 0.5 6.58152 0.5 6.25C0.5 5.91848 0.631696 5.60054 0.866116 5.36612C1.10054 5.1317 1.41848 5 1.75 5H6.75V2.5ZM9.25 5H16.75V2.5H9.25V5ZM5.5925 7.5L6.66375 22.5H19.3375L20.4088 7.5H5.5925ZM10.5 10C10.8315 10 11.1495 10.1317 11.3839 10.3661C11.6183 10.6005 11.75 10.9185 11.75 11.25V18.75C11.75 19.0815 11.6183 19.3995 11.3839 19.6339C11.1495 19.8683 10.8315 20 10.5 20C10.1685 20 9.85054 19.8683 9.61612 19.6339C9.3817 19.3995 9.25 19.0815 9.25 18.75V11.25C9.25 10.9185 9.3817 10.6005 9.61612 10.3661C9.85054 10.1317 10.1685 10 10.5 10ZM15.5 10C15.8315 10 16.1495 10.1317 16.3839 10.3661C16.6183 10.6005 16.75 10.9185 16.75 11.25V18.75C16.75 19.0815 16.6183 19.3995 16.3839 19.6339C16.1495 19.8683 15.8315 20 15.5 20C15.1685 20 14.8505 19.8683 14.6161 19.6339C14.3817 19.3995 14.25 19.0815 14.25 18.75V11.25C14.25 10.9185 14.3817 10.6005 14.6161 10.3661C14.8505 10.1317 15.1685 10 15.5 10Z" fill="#CD322C"/>
</svg>
