<svg width="173" height="173" viewBox="0 0 173 173" fill="none" xmlns="http://www.w3.org/2000/svg">
<path d="M36.1256 86.22H7.98438C3.85087 86.22 0.5 89.5709 0.5 93.7044V164.956C0.5 169.089 3.85087 172.44 7.98438 172.44H36.1256C40.2591 172.44 43.61 169.089 43.61 164.956V93.7044C43.61 89.5709 40.2591 86.22 36.1256 86.22Z" fill="#3F7F30"/>
<path d="M100.791 0H72.6494C68.5159 0 65.165 3.35087 65.165 7.48438V164.956C65.165 169.089 68.5159 172.44 72.6494 172.44H100.791C104.924 172.44 108.275 169.089 108.275 164.956V7.48438C108.275 3.35087 104.924 0 100.791 0Z" fill="#3F7F30"/>
<path d="M165.456 57.48H137.314C133.181 57.48 129.83 60.8309 129.83 64.9644V164.956C129.83 169.089 133.181 172.44 137.314 172.44H165.456C169.589 172.44 172.94 169.089 172.94 164.956V64.9644C172.94 60.8309 169.589 57.48 165.456 57.48Z" fill="#3F7F30"/>
</svg>
