<svg width="101" height="101" viewBox="0 0 101 101" fill="none" xmlns="http://www.w3.org/2000/svg">
<path id="Vector" opacity="0.5" d="M0 11.659C0 8.71211 1.18234 5.88596 3.28691 3.80222C5.39149 1.71848 8.2459 0.547852 11.2222 0.547852H33.6667C36.643 0.547852 39.4974 1.71848 41.602 3.80222C43.7065 5.88596 44.8889 8.71211 44.8889 11.659V33.8812C44.8889 36.828 43.7065 39.6542 41.602 41.7379C39.4974 43.8217 36.643 44.9923 33.6667 44.9923H11.2222C8.2459 44.9923 5.39149 43.8217 3.28691 41.7379C1.18234 39.6542 0 36.828 0 33.8812V11.659ZM33.6667 11.659H11.2222V33.8812H33.6667V11.659ZM56.1111 11.659C56.1111 8.71211 57.2934 5.88596 59.398 3.80222C61.5026 1.71848 64.357 0.547852 67.3333 0.547852H89.7778C92.7541 0.547852 95.6085 1.71848 97.7131 3.80222C99.8177 5.88596 101 8.71211 101 11.659V33.8812C101 36.828 99.8177 39.6542 97.7131 41.7379C95.6085 43.8217 92.7541 44.9923 89.7778 44.9923H67.3333C64.357 44.9923 61.5026 43.8217 59.398 41.7379C57.2934 39.6542 56.1111 36.828 56.1111 33.8812V11.659ZM89.7778 11.659H67.3333V33.8812H89.7778V11.659ZM0 67.2145C0 64.2677 1.18234 61.4415 3.28691 59.3578C5.39149 57.274 8.2459 56.1034 11.2222 56.1034H33.6667C36.643 56.1034 39.4974 57.274 41.602 59.3578C43.7065 61.4415 44.8889 64.2677 44.8889 67.2145V89.4367C44.8889 92.3836 43.7065 95.2097 41.602 97.2935C39.4974 99.3772 36.643 100.548 33.6667 100.548H11.2222C8.2459 100.548 5.39149 99.3772 3.28691 97.2935C1.18234 95.2097 0 92.3836 0 89.4367V67.2145ZM33.6667 67.2145H11.2222V89.4367H33.6667V67.2145ZM56.1111 67.2145C56.1111 64.2677 57.2934 61.4415 59.398 59.3578C61.5026 57.274 64.357 56.1034 67.3333 56.1034H89.7778C92.7541 56.1034 95.6085 57.274 97.7131 59.3578C99.8177 61.4415 101 64.2677 101 67.2145V89.4367C101 92.3836 99.8177 95.2097 97.7131 97.2935C95.6085 99.3772 92.7541 100.548 89.7778 100.548H67.3333C64.357 100.548 61.5026 99.3772 59.398 97.2935C57.2934 95.2097 56.1111 92.3836 56.1111 89.4367V67.2145ZM89.7778 67.2145H67.3333V89.4367H89.7778V67.2145Z" fill="#1A0F15"/>
</svg>
