<svg width="90" height="101" viewBox="0 0 90 101" fill="none" xmlns="http://www.w3.org/2000/svg">
<path d="M45 10.5C39.6957 10.5 34.6086 12.6071 30.8579 16.3579C27.1071 20.1086 25 25.1957 25 30.5C25 35.8043 27.1071 40.8914 30.8579 44.6421C34.6086 48.3929 39.6957 50.5 45 50.5C50.3043 50.5 55.3914 48.3929 59.1421 44.6421C62.8929 40.8914 65 35.8043 65 30.5C65 25.1957 62.8929 20.1086 59.1421 16.3579C55.3914 12.6071 50.3043 10.5 45 10.5ZM15 30.5C15 22.5435 18.1607 14.9129 23.7868 9.2868C29.4129 3.66071 37.0435 0.5 45 0.5C52.9565 0.5 60.5871 3.66071 66.2132 9.2868C71.8393 14.9129 75 22.5435 75 30.5C75 38.4565 71.8393 46.0871 66.2132 51.7132C60.5871 57.3393 52.9565 60.5 45 60.5C37.0435 60.5 29.4129 57.3393 23.7868 51.7132C18.1607 46.0871 15 38.4565 15 30.5ZM25 80.5C21.0218 80.5 17.2064 82.0803 14.3934 84.8934C11.5804 87.7064 10 91.5218 10 95.5C10 96.8261 9.47322 98.0979 8.53553 99.0355C7.59785 99.9732 6.32608 100.5 5 100.5C3.67392 100.5 2.40215 99.9732 1.46447 99.0355C0.526784 98.0979 0 96.8261 0 95.5C0 88.8696 2.63392 82.5107 7.32233 77.8223C12.0107 73.1339 18.3696 70.5 25 70.5H65C71.6304 70.5 77.9893 73.1339 82.6777 77.8223C87.3661 82.5107 90 88.8696 90 95.5C90 96.8261 89.4732 98.0979 88.5355 99.0355C87.5979 99.9732 86.3261 100.5 85 100.5C83.6739 100.5 82.4021 99.9732 81.4645 99.0355C80.5268 98.0979 80 96.8261 80 95.5C80 91.5218 78.4197 87.7064 75.6066 84.8934C72.7936 82.0803 68.9782 80.5 65 80.5H25Z" fill="#83B759"/>
</svg>
