<svg width="173" height="173" viewBox="0 0 173 173" fill="none" xmlns="http://www.w3.org/2000/svg">
<path d="M86.72 143.7C90.6882 143.7 93.905 140.483 93.905 136.515C93.905 132.547 90.6882 129.33 86.72 129.33C82.7518 129.33 79.535 132.547 79.535 136.515C79.535 140.483 82.7518 143.7 86.72 143.7Z" fill="#888381"/>
<path d="M89.8814 79.035L76.2299 65.4554L58.5548 47.924L47.4181 36.7872L34.3414 23.6387C33.6714 22.9687 32.8761 22.4373 32.0008 22.0748C31.1255 21.7122 30.1874 21.5256 29.24 21.5256C28.2926 21.5256 27.3545 21.7122 26.4792 22.0748C25.6039 22.4373 24.8086 22.9687 24.1386 23.6387C22.7857 24.9916 22.0256 26.8266 22.0256 28.74C22.0256 30.6534 22.7857 32.4884 24.1386 33.8414L34.054 43.6848L44.5441 54.1749L60.5666 70.2693L71.7034 81.3342L91.3902 101.021L111.436 121.139L139.099 148.801C139.767 149.475 140.561 150.009 141.437 150.374C142.312 150.739 143.251 150.927 144.2 150.927C145.149 150.927 146.088 150.739 146.963 150.374C147.839 150.009 148.633 149.475 149.301 148.801C149.975 148.133 150.509 147.339 150.874 146.463C151.239 145.588 151.427 144.649 151.427 143.7C151.427 142.752 151.239 141.812 150.874 140.937C150.509 140.061 149.975 139.267 149.301 138.599L89.8814 79.035Z" fill="#888381"/>
<path d="M156.558 56.9771C137.844 38.8289 112.788 28.6983 86.72 28.74C75.874 28.7694 65.1031 30.5403 54.8186 33.9851L66.4583 45.6248C80.5538 42.1027 95.3147 42.2338 109.345 46.0055C123.376 49.7772 136.213 57.0649 146.643 67.1798C147.975 68.4636 149.751 69.1842 151.601 69.1916C152.568 69.1879 153.526 68.9887 154.415 68.6059C155.303 68.2232 156.106 67.6648 156.774 66.9642C158.04 65.5967 158.726 63.7905 158.686 61.927C158.645 60.0636 157.883 58.2887 156.558 56.9771Z" fill="#888381"/>
<path d="M27.9467 47.7803C24.0483 50.5839 20.351 53.657 16.8818 56.9771C15.6692 58.3254 15.0113 60.0823 15.0401 61.8954C15.0688 63.7085 15.782 65.4437 17.0367 66.7529C18.2913 68.0621 19.9946 68.8485 21.8049 68.9543C23.6151 69.0601 25.3984 68.4776 26.7971 67.3235C30.3803 63.9374 34.2241 60.8383 38.2931 58.0548L27.9467 47.7803Z" fill="#888381"/>
<path d="M122.645 94.4109C123.31 95.0898 124.104 95.6299 124.98 95.9999C125.855 96.3699 126.796 96.5625 127.746 96.5664C129.15 96.5611 130.522 96.1444 131.692 95.368C132.862 94.5916 133.779 93.4894 134.329 92.1976C134.879 90.9058 135.039 89.4811 134.789 88.0995C134.538 86.718 133.888 85.4401 132.92 84.4238C126.927 78.2142 119.752 73.267 111.817 69.8735C103.883 66.4801 95.3495 64.7091 86.72 64.665H85.5704L102.455 81.5498C110.122 84.1494 117.048 88.5614 122.645 94.4109Z" fill="#888381"/>
<path d="M53.8846 73.7181C48.8638 76.6424 44.27 80.2449 40.2331 84.4238C39.5773 85.1173 39.0645 85.9331 38.7241 86.8248C38.3836 87.7165 38.2221 88.6665 38.2488 89.6206C38.2755 90.5746 38.4899 91.5141 38.8796 92.3854C39.2694 93.2566 39.8269 94.0425 40.5205 94.6983C41.9211 96.0227 43.7904 96.7364 45.7173 96.6825C46.6713 96.6558 47.6108 96.4415 48.4821 96.0517C49.3533 95.662 50.1392 95.1044 50.795 94.4109C54.9808 90.2495 59.8391 86.8244 65.165 84.28L53.8846 73.7181Z" fill="#888381"/>
<path d="M61.788 110.649C60.416 111.973 59.6263 113.789 59.5926 115.695C59.5589 117.602 60.284 119.444 61.6084 120.816C62.9328 122.188 64.748 122.978 66.6546 123.011C68.5612 123.045 70.4032 122.32 71.7752 120.995C75.4741 117.584 80.2314 115.544 85.2527 115.218C90.274 114.891 95.2555 116.296 99.3656 119.199L81.2594 101.093C73.9394 102.196 67.1389 105.534 61.788 110.649Z" fill="#888381"/>
</svg>
