<svg width="27" height="27" viewBox="0 0 27 27" fill="none" xmlns="http://www.w3.org/2000/svg">
<path d="M1 4.57143C1 2.59898 2.59898 1 4.57143 1H19.5334C20.4805 1 21.3889 1.37627 22.0587 2.04605L24.9539 4.94127C25.6237 5.61104 26 6.51945 26 7.46664V22.4286C26 24.4011 24.4011 26 22.4286 26H4.57143C2.59898 26 1 24.4011 1 22.4286V4.57143ZM4.57143 2.78571C3.58521 2.78571 2.78571 3.58521 2.78571 4.57143V22.4286C2.78571 23.4148 3.58521 24.2143 4.57143 24.2143V16.1786C4.57143 14.6993 5.77066 13.5 7.25 13.5H19.75C21.2293 13.5 22.4286 14.6993 22.4286 16.1786V24.2143C23.4148 24.2143 24.2143 23.4148 24.2143 22.4286V7.46664C24.2143 6.99304 24.0261 6.53884 23.6912 6.20395L20.7961 3.30873C20.4613 2.97386 20.007 2.78571 19.5334 2.78571H18.8571V7.25C18.8571 8.72934 17.6579 9.92857 16.1786 9.92857H9.03571C7.55637 9.92857 6.35714 8.72934 6.35714 7.25V2.78571H4.57143ZM8.14286 2.78571V7.25C8.14286 7.74311 8.54261 8.14286 9.03571 8.14286H16.1786C16.6716 8.14286 17.0714 7.74311 17.0714 7.25V2.78571H8.14286ZM20.6429 24.2143V16.1786C20.6429 15.6855 20.243 15.2857 19.75 15.2857H7.25C6.75689 15.2857 6.35714 15.6855 6.35714 16.1786V24.2143H20.6429Z" fill="#3F7F30" stroke="#3F7F30"/>
</svg>
