<svg width="25" height="25" viewBox="0 0 25 25" fill="none" xmlns="http://www.w3.org/2000/svg">
<path d="M9.94078 2.5C8.62255 2.5 7.35831 3.02678 6.42618 3.96447C5.49406 4.90215 4.97039 6.17392 4.97039 7.5C4.97039 8.82608 5.49406 10.0979 6.42618 11.0355C7.35831 11.9732 8.62255 12.5 9.94078 12.5C11.259 12.5 12.5233 11.9732 13.4554 11.0355C14.3875 10.0979 14.9112 8.82608 14.9112 7.5C14.9112 6.17392 14.3875 4.90215 13.4554 3.96447C12.5233 3.02678 11.259 2.5 9.94078 2.5ZM2.4852 7.5C2.4852 5.51088 3.27069 3.60322 4.66889 2.1967C6.06708 0.790176 7.96344 0 9.94078 0C11.9181 0 13.8145 0.790176 15.2127 2.1967C16.6109 3.60322 17.3964 5.51088 17.3964 7.5C17.3964 9.48912 16.6109 11.3968 15.2127 12.8033C13.8145 14.2098 11.9181 15 9.94078 15C7.96344 15 6.06708 14.2098 4.66889 12.8033C3.27069 11.3968 2.4852 9.48912 2.4852 7.5ZM18.4252 2.19625C18.5406 2.08003 18.6777 1.98783 18.8285 1.92493C18.9794 1.86202 19.1411 1.82964 19.3044 1.82964C19.4677 1.82964 19.6294 1.86202 19.7802 1.92493C19.9311 1.98783 20.0681 2.08003 20.1835 2.19625C20.876 2.89271 21.4253 3.71956 21.8 4.62958C22.1748 5.53961 22.3677 6.51498 22.3677 7.5C22.3677 8.48502 22.1748 9.46039 21.8 10.3704C21.4253 11.2804 20.876 12.1073 20.1835 12.8038C20.0681 12.9199 19.931 13.012 19.7802 13.0749C19.6293 13.1377 19.4676 13.1701 19.3044 13.1701C19.1411 13.1701 18.9794 13.1377 18.8286 13.0749C18.6777 13.012 18.5407 12.9199 18.4252 12.8038C18.3098 12.6876 18.2182 12.5497 18.1557 12.398C18.0932 12.2463 18.0611 12.0836 18.0611 11.9194C18.0611 11.7551 18.0932 11.5925 18.1557 11.4408C18.2182 11.289 18.3098 11.1511 18.4252 11.035C19.357 10.0974 19.8805 8.82582 19.8805 7.5C19.8805 6.17418 19.357 4.90264 18.4252 3.965C18.3097 3.84891 18.2181 3.71105 18.1555 3.5593C18.093 3.40755 18.0608 3.24489 18.0608 3.08062C18.0608 2.91636 18.093 2.7537 18.1555 2.60195C18.2181 2.4502 18.3097 2.31234 18.4252 2.19625ZM19.2975 18.4462C19.3776 18.125 19.5813 17.8488 19.8636 17.6784C20.146 17.508 20.4841 17.4573 20.8036 17.5375C22.4537 17.9525 23.4988 19.0125 24.0989 20.2225C24.6805 21.3912 24.852 22.6975 24.852 23.75C24.852 24.0815 24.721 24.3995 24.488 24.6339C24.255 24.8683 23.9389 25 23.6094 25C23.2798 25 22.9637 24.8683 22.7307 24.6339C22.4977 24.3995 22.3668 24.0815 22.3668 23.75C22.3668 22.9287 22.2276 22.0463 21.8772 21.34C21.5454 20.6738 21.0359 20.1725 20.2009 19.9625C19.8815 19.8819 19.607 19.6771 19.4376 19.393C19.2682 19.109 19.2178 18.7676 19.2975 18.4462ZM5.59169 20C4.02602 20 2.4852 21.5163 2.4852 23.75C2.4852 24.0815 2.35428 24.3995 2.12125 24.6339C1.88821 24.8683 1.57216 25 1.2426 25C0.91304 25 0.596981 24.8683 0.363948 24.6339C0.130916 24.3995 0 24.0815 0 23.75C0 20.46 2.35224 17.5 5.59169 17.5H14.2899C17.5293 17.5 19.8816 20.46 19.8816 23.75C19.8816 24.0815 19.7506 24.3995 19.5176 24.6339C19.2846 24.8683 18.9685 25 18.639 25C18.3094 25 17.9933 24.8683 17.7603 24.6339C17.5273 24.3995 17.3964 24.0815 17.3964 23.75C17.3964 21.5163 15.8555 20 14.2899 20H5.59169Z" fill="#888381"/>
</svg>
