<svg width="101" height="100" viewBox="0 0 101 100" fill="none" xmlns="http://www.w3.org/2000/svg">
<path d="M75.5 12.5H25.5C22.1848 12.5 19.0054 13.817 16.6612 16.1612C14.317 18.5054 13 21.6848 13 25V75C13 78.3152 14.317 81.4946 16.6612 83.8388C19.0054 86.183 22.1848 87.5 25.5 87.5H75.5C78.8152 87.5 81.9946 86.183 84.3388 83.8388C86.683 81.4946 88 78.3152 88 75V25C88 21.6848 86.683 18.5054 84.3388 16.1612C81.9946 13.817 78.8152 12.5 75.5 12.5ZM25.5 20.8333H75.5C76.6051 20.8333 77.6649 21.2723 78.4463 22.0537C79.2277 22.8351 79.6667 23.8949 79.6667 25V59.8333L66.3333 48.4583C64.2675 46.7585 61.6753 45.8291 59 45.8291C56.3247 45.8291 53.7325 46.7585 51.6667 48.4583L21.3333 73.75V25C21.3333 23.8949 21.7723 22.8351 22.5537 22.0537C23.3351 21.2723 24.3949 20.8333 25.5 20.8333Z" fill="#3F7F30"/>
<path d="M33.8333 41.6667C37.2851 41.6667 40.0833 38.8684 40.0833 35.4167C40.0833 31.9649 37.2851 29.1667 33.8333 29.1667C30.3816 29.1667 27.5833 31.9649 27.5833 35.4167C27.5833 38.8684 30.3816 41.6667 33.8333 41.6667Z" fill="#3F7F30"/>
</svg>
