<svg width="173" height="192" viewBox="0 0 173 192" fill="none" xmlns="http://www.w3.org/2000/svg">
<path d="M172.94 47.8983C172.939 45.3578 171.93 42.9216 170.133 41.1255L131.815 2.80684C130.017 1.01196 127.582 0.00264199 125.042 0L34.035 0C30.224 0 26.569 1.51392 23.8742 4.20872C21.1794 6.90353 19.6655 10.5585 19.6655 14.3695V57.4779C19.6655 60.0186 20.6748 62.4552 22.4713 64.2518C24.2679 66.0483 26.7045 67.0576 29.2452 67.0576C31.7858 67.0576 34.2225 66.0483 36.019 64.2518C37.8155 62.4552 38.8248 60.0186 38.8248 57.4779V19.1593H121.076L153.781 51.8643V172.434H38.8248V162.854C38.8248 160.313 37.8155 157.877 36.019 156.08C34.2225 154.284 31.7858 153.275 29.2452 153.275C26.7045 153.275 24.2679 154.284 22.4713 156.08C20.6748 157.877 19.6655 160.313 19.6655 162.854V177.224C19.6655 181.035 21.1794 184.69 23.8742 187.384C26.569 190.079 30.224 191.593 34.035 191.593H158.571C162.382 191.593 166.036 190.079 168.731 187.384C171.426 184.69 172.94 181.035 172.94 177.224V47.8983Z" fill="#3F7F30"/>
<path d="M86.7231 57.4779C84.1824 57.4779 81.7458 58.4872 79.9493 60.2838C78.1527 62.0803 77.1434 64.5169 77.1434 67.0576C77.1434 69.5983 78.1527 72.0349 79.9493 73.8314C81.7458 75.628 84.1824 76.6372 86.7231 76.6372H115.462V105.376C115.462 107.917 116.471 110.354 118.268 112.15C120.064 113.947 122.501 114.956 125.042 114.956C127.582 114.956 130.019 113.947 131.816 112.15C133.612 110.354 134.621 107.917 134.621 105.376V67.0576C134.621 64.5169 133.612 62.0803 131.816 60.2838C130.019 58.4872 127.582 57.4779 125.042 57.4779H86.7231Z" fill="#3F7F30"/>
<path d="M67.5638 124.536L60.2066 130.667C61.0587 131.689 62.1144 132.522 63.3065 133.114C64.4985 133.705 65.8007 134.042 67.1301 134.102C68.4595 134.163 69.7869 133.945 71.0276 133.464C72.2684 132.983 73.3953 132.249 74.3366 131.308L67.5638 124.536ZM43.6146 95.7966L50.9718 89.6656C50.085 88.6032 48.9785 87.7455 47.7286 87.1517C46.4786 86.5578 45.1148 86.2418 43.731 86.2254C42.3472 86.209 40.9763 86.4926 39.7126 87.0567C38.4489 87.6208 37.3225 88.452 36.4107 89.4931L43.6146 95.7966ZM2.87237 127.802C1.19806 129.715 0.352315 132.215 0.521189 134.752C0.690063 137.289 1.85972 139.654 3.77286 141.329C5.68599 143.003 8.18589 143.849 10.7226 143.68C13.2593 143.511 15.625 142.341 17.2993 140.428L2.87237 127.802ZM108.689 69.8644L60.791 117.763L74.3366 131.308L122.235 83.4101L108.689 69.8644ZM74.921 118.405L50.9718 89.6656L36.2575 101.928L60.2066 130.667L74.921 118.405ZM36.4107 89.4931L2.88195 127.812L17.2993 140.419L50.8281 102.1L36.4107 89.4931Z" fill="#3F7F30"/>
</svg>
