<svg width="26" height="25" viewBox="0 0 26 25" fill="none" xmlns="http://www.w3.org/2000/svg">
<path d="M11.4375 19.5312H22.375V21.0938H11.4375V19.5312Z" fill="#3F7F30"/>
<path d="M6.10156 20.3125L4.08594 22.3281L5.1875 23.4375L8.3125 20.3125L5.1875 17.1875L4.07812 18.2891L6.10156 20.3125Z" fill="#3F7F30"/>
<path d="M11.4375 11.7188H22.375V13.2812H11.4375V11.7188Z" fill="#3F7F30"/>
<path d="M6.10156 12.5L4.08594 14.5156L5.1875 15.625L8.3125 12.5L5.1875 9.375L4.07812 10.4766L6.10156 12.5Z" fill="#3F7F30"/>
<path d="M11.4375 3.90625H22.375V5.46875H11.4375V3.90625Z" fill="#3F7F30"/>
<path d="M6.10156 4.6875L4.08594 6.70312L5.1875 7.8125L8.3125 4.6875L5.1875 1.5625L4.07812 2.66406L6.10156 4.6875Z" fill="#3F7F30"/>
</svg>
