<svg width="26" height="25" viewBox="0 0 26 25" fill="none" xmlns="http://www.w3.org/2000/svg">
<path d="M13 5.20833C13 4.93207 13.1097 4.66711 13.3051 4.47176C13.5004 4.27641 13.7654 4.16667 14.0417 4.16667H22.375C22.6513 4.16667 22.9162 4.27641 23.1116 4.47176C23.3069 4.66711 23.4167 4.93207 23.4167 5.20833C23.4167 5.4846 23.3069 5.74955 23.1116 5.9449C22.9162 6.14025 22.6513 6.25 22.375 6.25H14.0417C13.7654 6.25 13.5004 6.14025 13.3051 5.9449C13.1097 5.74955 13 5.4846 13 5.20833Z" fill="#3F7F30"/>
<path d="M13 12.5C13 12.2237 13.1097 11.9588 13.3051 11.7634C13.5004 11.5681 13.7654 11.4583 14.0417 11.4583H22.375C22.6513 11.4583 22.9162 11.5681 23.1116 11.7634C23.3069 11.9588 23.4167 12.2237 23.4167 12.5C23.4167 12.7763 23.3069 13.0412 23.1116 13.2366C22.9162 13.4319 22.6513 13.5417 22.375 13.5417H14.0417C13.7654 13.5417 13.5004 13.4319 13.3051 13.2366C13.1097 13.0412 13 12.7763 13 12.5Z" fill="#3F7F30"/>
<path d="M13 19.7917C13 19.5154 13.1097 19.2504 13.3051 19.0551C13.5004 18.8597 13.7654 18.75 14.0417 18.75H22.375C22.6513 18.75 22.9162 18.8597 23.1116 19.0551C23.3069 19.2504 23.4167 19.5154 23.4167 19.7917C23.4167 20.0679 23.3069 20.3329 23.1116 20.5282C22.9162 20.7236 22.6513 20.8333 22.375 20.8333H14.0417C13.7654 20.8333 13.5004 20.7236 13.3051 20.5282C13.1097 20.3329 13 20.0679 13 19.7917Z" fill="#3F7F30"/>
<path d="M6.75 4.11458L8 6.25H5.44792L6.75 4.11458ZM6.75 1.04167C6.57105 1.04935 6.39673 1.10086 6.24234 1.19167C6.08796 1.28248 5.95824 1.40982 5.86458 1.5625L2.6875 6.77083C2.60908 6.93326 2.56835 7.1113 2.56835 7.29167C2.56835 7.47203 2.60908 7.65007 2.6875 7.8125C2.77328 7.97203 2.90121 8.10496 3.05733 8.1968C3.21346 8.28864 3.3918 8.33587 3.57292 8.33333H9.875C10.0539 8.32565 10.2283 8.27414 10.3827 8.18333C10.537 8.09252 10.6668 7.96518 10.7604 7.8125C10.8634 7.65833 10.9184 7.47708 10.9184 7.29167C10.9184 7.10625 10.8634 6.925 10.7604 6.77083L7.63542 1.5625C7.54963 1.40296 7.42171 1.27004 7.26558 1.1782C7.10946 1.08636 6.93112 1.03913 6.75 1.04167Z" fill="#3F7F30"/>
<path d="M6.75 15.625C6.13193 15.625 5.52775 15.4417 5.01384 15.0983C4.49994 14.755 4.0994 14.2669 3.86288 13.6959C3.62635 13.1249 3.56447 12.4965 3.68505 11.8903C3.80562 11.2842 4.10325 10.7273 4.54029 10.2903C4.97733 9.85325 5.53415 9.55562 6.14034 9.43505C6.74653 9.31447 7.37487 9.37635 7.94589 9.61288C8.5169 9.8494 9.00496 10.2499 9.34834 10.7638C9.69172 11.2777 9.875 11.8819 9.875 12.5C9.875 13.3288 9.54576 14.1237 8.95971 14.7097C8.37366 15.2958 7.5788 15.625 6.75 15.625ZM6.75 11.4583C6.54398 11.4583 6.34258 11.5194 6.17128 11.6339C5.99998 11.7483 5.86647 11.911 5.78763 12.1014C5.70878 12.2917 5.68816 12.5012 5.72835 12.7032C5.76854 12.9053 5.86775 13.0909 6.01343 13.2366C6.15911 13.3822 6.34472 13.4815 6.54678 13.5217C6.74884 13.5618 6.95829 13.5412 7.14863 13.4624C7.33897 13.3835 7.50165 13.25 7.61611 13.0787C7.73057 12.9074 7.79167 12.706 7.79167 12.5C7.79167 12.2237 7.68192 11.9588 7.48657 11.7634C7.29122 11.5681 7.02627 11.4583 6.75 11.4583Z" fill="#3F7F30"/>
<path d="M8.83333 22.9167H4.66667C4.3904 22.9167 4.12545 22.8069 3.9301 22.6116C3.73475 22.4162 3.625 22.1513 3.625 21.875V17.7083C3.625 17.4321 3.73475 17.1671 3.9301 16.9718C4.12545 16.7764 4.3904 16.6667 4.66667 16.6667H8.83333C9.1096 16.6667 9.37455 16.7764 9.5699 16.9718C9.76525 17.1671 9.875 17.4321 9.875 17.7083V21.875C9.875 22.1513 9.76525 22.4162 9.5699 22.6116C9.37455 22.8069 9.1096 22.9167 8.83333 22.9167ZM5.70833 20.8333H7.79167V18.75H5.70833V20.8333Z" fill="#3F7F30"/>
</svg>
