<svg width="173" height="173" viewBox="0 0 173 173" fill="none" xmlns="http://www.w3.org/2000/svg">
<path d="M139.602 50.295H129.83V35.925C129.986 32.2774 128.69 28.7166 126.225 26.0231C123.76 23.3295 120.329 21.7228 116.681 21.555H56.7585C53.1114 21.7228 49.6796 23.3295 47.215 26.0231C44.7504 28.7166 43.454 32.2774 43.61 35.925V50.295H33.8384C28.782 50.333 23.9468 52.3732 20.3915 55.9688C16.8363 59.5645 14.8508 64.4225 14.87 69.479V117.331C14.8508 122.388 16.8363 127.246 20.3915 130.841C23.9468 134.437 28.782 136.477 33.8384 136.515H40.0175C40.0175 140.326 41.5315 143.981 44.2264 146.676C46.9213 149.371 50.5763 150.885 54.3875 150.885H119.052C122.864 150.885 126.519 149.371 129.214 146.676C131.909 143.981 133.422 140.326 133.422 136.515H139.602C144.658 136.477 149.493 134.437 153.048 130.841C156.604 127.246 158.589 122.388 158.57 117.331V69.479C158.589 64.4225 156.604 59.5645 153.048 55.9688C149.493 52.3732 144.658 50.333 139.602 50.295ZM57.98 35.925H115.46V50.295H57.98V35.925ZM54.3875 136.515V107.775H119.052V136.515H54.3875ZM144.2 117.331C144.219 118.577 143.748 119.78 142.888 120.681C142.027 121.581 140.847 122.107 139.602 122.145H133.422V107.775C133.422 103.964 131.909 100.309 129.214 97.6139C126.519 94.919 122.864 93.405 119.052 93.405H54.3875C50.5763 93.405 46.9213 94.919 44.2264 97.6139C41.5315 100.309 40.0175 103.964 40.0175 107.775V122.145H33.8384C32.5933 122.107 31.4129 121.581 30.5525 120.681C29.692 119.78 29.2206 118.577 29.24 117.331V69.479C29.2206 68.2334 29.692 67.0302 30.5525 66.1294C31.4129 65.2286 32.5933 64.7026 33.8384 64.665H139.602C140.847 64.7026 142.027 65.2286 142.888 66.1294C143.748 67.0302 144.219 68.2334 144.2 69.479V117.331Z" fill="white"/>
</svg>
