<svg width="182" height="189" viewBox="0 0 182 189" fill="none" xmlns="http://www.w3.org/2000/svg">
<path d="M4.5 49.892L87.8975 86.9579L93.5425 74.2559L10.1451 37.1904L4.5 49.892ZM97.6698 182.537V80.6067H83.7702V182.537H97.6698ZM93.5425 86.9579L176.94 49.892L171.295 37.1904L87.8975 74.2559L93.5425 86.9579Z" fill="#3F7F30"/>
<path d="M7.32254 141.858V47.1543C7.32254 44.9572 8.6165 42.9661 10.6243 42.0738L88.4618 7.47919C89.8999 6.84027 91.5401 6.84027 92.9782 7.47919L170.816 42.0738C172.824 42.9661 174.117 44.9572 174.117 47.1543V141.858C174.117 144.056 172.824 146.047 170.816 146.939L92.9782 181.533C91.5401 182.172 89.8999 182.172 88.4618 181.533L10.6243 146.939C8.6165 146.047 7.32254 144.056 7.32254 141.858Z" stroke="#3F7F30" stroke-width="13.8996" stroke-linecap="round" stroke-linejoin="round"/>
<path d="M49.0213 25.0084L129.117 60.6065C131.125 61.4989 132.419 63.4899 132.419 65.6871V99.1395" stroke="#3F7F30" stroke-width="13.8996" stroke-linecap="round" stroke-linejoin="round"/>
</svg>
