<svg width="173" height="201" viewBox="0 0 173 201" fill="none" xmlns="http://www.w3.org/2000/svg">
<path d="M38.7139 95.5346H115.142V114.642H38.7139V95.5346ZM57.8208 171.962H19.6069V19.1069H86.4812V66.8742H134.248V96.49L153.355 77.3831V57.3208L96.0346 0H19.6069C14.5395 0 9.67953 2.01304 6.09629 5.59629C2.51304 9.17953 0.5 14.0395 0.5 19.1069V171.962C0.5 177.03 2.51304 181.89 6.09629 185.473C9.67953 189.056 14.5395 191.069 19.6069 191.069H57.8208V171.962ZM38.7139 152.855H77.8831L86.4812 144.257V133.748H38.7139V152.855ZM155.266 105.088C156.221 105.088 158.132 106.043 159.087 106.999L171.507 119.418C173.418 121.329 173.418 125.15 171.507 127.061L161.954 136.615L141.891 116.552L151.445 106.999C152.4 106.043 153.355 105.088 155.266 105.088ZM155.266 142.347L96.99 200.623H76.9277V180.56L135.204 122.284L155.266 142.347Z" fill="#3F7F30"/>
</svg>
