<svg width="25" height="25" viewBox="0 0 25 25" fill="none" xmlns="http://www.w3.org/2000/svg">
<g id="&#240;&#159;&#166;&#134; icon &#34;times&#34;">
<path id="Vector" d="M15.4369 12.4982L24.3878 3.56808C24.7798 3.17611 25 2.64447 25 2.09014C25 1.5358 24.7798 1.00416 24.3878 0.612187C23.9958 0.22021 23.4642 0 22.9099 0C22.3555 0 21.8239 0.22021 21.4319 0.612187L12.5018 9.56314L3.57164 0.612187C3.17966 0.22021 2.64803 -4.13014e-09 2.09369 0C1.53935 4.13014e-09 1.00772 0.22021 0.615739 0.612187C0.223763 1.00416 0.00355249 1.5358 0.00355249 2.09014C0.00355249 2.64447 0.223763 3.17611 0.615739 3.56808L9.5667 12.4982L0.615739 21.4284C0.420632 21.6219 0.265772 21.8521 0.160091 22.1058C0.0544103 22.3594 0 22.6315 0 22.9063C0 23.1811 0.0544103 23.4532 0.160091 23.7069C0.265772 23.9605 0.420632 24.1907 0.615739 24.3843C0.809252 24.5794 1.03948 24.7342 1.29315 24.8399C1.54681 24.9456 1.81889 25 2.09369 25C2.36849 25 2.64057 24.9456 2.89423 24.8399C3.14789 24.7342 3.37812 24.5794 3.57164 24.3843L12.5018 15.4333L21.4319 24.3843C21.6254 24.5794 21.8557 24.7342 22.1093 24.8399C22.363 24.9456 22.6351 25 22.9099 25C23.1847 25 23.4567 24.9456 23.7104 24.8399C23.9641 24.7342 24.1943 24.5794 24.3878 24.3843C24.5829 24.1907 24.7378 23.9605 24.8435 23.7069C24.9491 23.4532 25.0036 23.1811 25.0036 22.9063C25.0036 22.6315 24.9491 22.3594 24.8435 22.1058C24.7378 21.8521 24.5829 21.6219 24.3878 21.4284L15.4369 12.4982Z" fill="#CD322C"/>
</g>
</svg>
