<svg width="173" height="173" viewBox="0 0 173 173" fill="none" xmlns="http://www.w3.org/2000/svg">
<path d="M57.6207 56.0431H18.8217C17.6893 56.0438 16.5678 55.8212 15.5215 55.3882C14.4751 54.9551 13.5244 54.32 12.7236 53.5193C11.9229 52.7185 11.2878 51.7678 10.8547 50.7214C10.4217 49.675 10.1991 48.5536 10.1997 47.4211V8.62215C10.1997 6.33545 11.1081 4.14241 12.7251 2.52547C14.342 0.908535 16.5351 0.000148773 18.8217 0.000148773C21.1084 0.000148773 23.3015 0.908535 24.9184 2.52547C26.5354 4.14241 27.4437 6.33545 27.4437 8.62215V38.7991H57.6207C59.9074 38.7991 62.1005 39.7075 63.7174 41.3245C65.3344 42.9414 66.2427 45.1345 66.2427 47.4211C66.2427 49.7078 65.3344 51.9009 63.7174 53.5178C62.1005 55.1348 59.9074 56.0431 57.6207 56.0431Z" fill="#336699"/>
<path d="M164.318 94.8421C163.186 94.8428 162.064 94.6202 161.018 94.1871C159.971 93.7541 159.021 93.119 158.22 92.3182C157.419 91.5175 156.784 90.5668 156.351 89.5204C155.918 88.474 155.695 87.3526 155.696 86.2201C155.705 71.0389 150.703 56.2792 141.466 44.232C132.228 32.1848 119.272 23.524 104.608 19.5939C89.9446 15.6639 74.3937 16.6844 60.3694 22.4971C46.3451 28.3098 34.6319 38.5896 27.048 51.7408C25.9024 53.7193 24.0177 55.1617 21.8086 55.7506C19.5994 56.3396 17.2469 56.0268 15.2683 54.8812C13.2898 53.7356 11.8474 51.8509 11.2585 49.6418C10.6695 47.4326 10.9823 45.08 12.1279 43.1015C21.6124 26.6666 36.2562 13.8217 53.787 6.56003C71.3178 -0.701681 90.7552 -1.97413 109.083 2.94013C127.411 7.85439 143.604 18.6806 155.151 33.7387C166.697 48.7968 172.95 67.2449 172.94 86.2201C172.941 87.3526 172.718 88.474 172.285 89.5204C171.852 90.5668 171.217 91.5175 170.416 92.3182C169.615 93.119 168.665 93.7541 167.618 94.1871C166.572 94.6202 165.45 94.8428 164.318 94.8421ZM154.618 172.44C153.486 172.441 152.364 172.218 151.318 171.785C150.272 171.352 149.321 170.717 148.52 169.916C147.719 169.115 147.084 168.165 146.651 167.118C146.218 166.072 145.996 164.951 145.996 163.818V133.641H115.819C113.533 133.641 111.339 132.733 109.723 131.116C108.106 129.499 107.197 127.306 107.197 125.019C107.197 122.732 108.106 120.539 109.723 118.922C111.339 117.306 113.533 116.397 115.819 116.397H154.618C155.751 116.396 156.872 116.619 157.918 117.052C158.965 117.485 159.916 118.12 160.716 118.921C161.517 119.722 162.152 120.672 162.585 121.719C163.018 122.765 163.241 123.887 163.24 125.019V163.818C163.241 164.951 163.018 166.072 162.585 167.118C162.152 168.165 161.517 169.115 160.716 169.916C159.916 170.717 158.965 171.352 157.918 171.785C156.872 172.218 155.751 172.441 154.618 172.44Z" fill="#336699"/>
<path d="M86.72 172.44C63.8613 172.413 41.9465 163.321 25.7829 147.157C9.61935 130.994 0.526857 109.079 0.5 86.2201C0.5 83.9334 1.40839 81.7404 3.02532 80.1235C4.64226 78.5065 6.8353 77.5981 9.122 77.5981C11.4087 77.5981 13.6017 78.5065 15.2187 80.1235C16.8356 81.7404 17.744 83.9334 17.744 86.2201C17.7345 101.401 22.7367 116.161 31.9743 128.208C41.2119 140.255 54.1681 148.916 68.8317 152.846C83.4954 156.776 99.0463 155.756 113.071 149.943C127.095 144.13 138.808 133.851 146.392 120.699C147.538 118.721 149.422 117.279 151.631 116.69C153.841 116.101 156.193 116.413 158.172 117.559C160.15 118.705 161.593 120.589 162.182 122.799C162.77 125.008 162.458 127.36 161.312 129.339C153.729 142.414 142.851 153.274 129.764 160.836C116.676 168.399 101.835 172.4 86.72 172.44Z" fill="#336699"/>
</svg>
