<svg width="189" height="181" viewBox="0 0 189 181" fill="none" xmlns="http://www.w3.org/2000/svg">
<path d="M71.2055 172.602C75.5344 172.602 79.0436 169.093 79.0436 164.764C79.0436 160.435 75.5344 156.925 71.2055 156.925C66.8765 156.925 63.3673 160.435 63.3673 164.764C63.3673 169.093 66.8765 172.602 71.2055 172.602Z" stroke="#3F7F30" stroke-width="15.6764" stroke-linecap="round" stroke-linejoin="round"/>
<path d="M157.425 172.602C161.754 172.602 165.264 169.093 165.264 164.764C165.264 160.435 161.754 156.925 157.425 156.925C153.097 156.925 149.587 160.435 149.587 164.764C149.587 169.093 153.097 172.602 157.425 172.602Z" stroke="#3F7F30" stroke-width="15.6764" stroke-linecap="round" stroke-linejoin="round"/>
<path d="M8.5 8H39.8527L60.8591 112.953C61.5758 116.562 63.539 119.804 66.4049 122.111C69.2709 124.418 72.8569 125.643 76.5354 125.573H152.723C156.401 125.643 159.987 124.418 162.853 122.111C165.719 119.804 167.682 116.562 168.399 112.953L180.94 47.1909H47.6909" stroke="#3F7F30" stroke-width="15.6764" stroke-linecap="round" stroke-linejoin="round"/>
</svg>
