<svg width="173" height="173" viewBox="0 0 173 173" fill="none" xmlns="http://www.w3.org/2000/svg">
<path fill-rule="evenodd" clip-rule="evenodd" d="M46.9262 0C50.589 0 53.5585 2.96942 53.5585 6.63231V13.2646H119.882V6.63231C119.882 2.96942 122.851 0 126.514 0C130.176 0 133.146 2.96942 133.146 6.63231V13.2646H153.043C164.031 13.2646 172.94 22.1727 172.94 33.1615V152.543C172.94 163.531 164.031 172.44 153.043 172.44H20.3969C9.40812 172.44 0.5 163.531 0.5 152.543V33.1615C0.5 22.1727 9.40812 13.2646 20.3969 13.2646H40.2938V6.63231C40.2938 2.96942 43.2633 0 46.9262 0ZM119.882 26.5292V33.1615C119.882 36.8244 122.851 39.7938 126.514 39.7938C130.176 39.7938 133.146 36.8244 133.146 33.1615V26.5292H153.043C156.705 26.5292 159.675 29.4986 159.675 33.1615V53.0585H13.7646V33.1615C13.7646 29.4986 16.734 26.5292 20.3969 26.5292H40.2938V33.1615C40.2938 36.8244 43.2633 39.7938 46.9262 39.7938C50.589 39.7938 53.5585 36.8244 53.5585 33.1615V26.5292H119.882ZM13.7646 66.3231V152.543C13.7646 156.205 16.734 159.175 20.3969 159.175H153.043C156.705 159.175 159.675 156.205 159.675 152.543V66.3231H13.7646ZM80.0877 86.22C80.0877 82.5571 83.0571 79.5877 86.72 79.5877C90.3829 79.5877 93.3523 82.5571 93.3523 86.22C93.3523 89.8829 90.3829 92.8523 86.72 92.8523C83.0571 92.8523 80.0877 89.8829 80.0877 86.22ZM113.249 79.5877C109.586 79.5877 106.617 82.5571 106.617 86.22C106.617 89.8829 109.586 92.8523 113.249 92.8523C116.912 92.8523 119.882 89.8829 119.882 86.22C119.882 82.5571 116.912 79.5877 113.249 79.5877ZM133.146 86.22C133.146 82.5571 136.116 79.5877 139.778 79.5877C143.441 79.5877 146.411 82.5571 146.411 86.22C146.411 89.8829 143.441 92.8523 139.778 92.8523C136.116 92.8523 133.146 89.8829 133.146 86.22ZM139.778 106.117C136.116 106.117 133.146 109.086 133.146 112.749C133.146 116.412 136.116 119.382 139.778 119.382C143.441 119.382 146.411 116.412 146.411 112.749C146.411 109.086 143.441 106.117 139.778 106.117ZM106.617 112.749C106.617 109.086 109.586 106.117 113.249 106.117C116.912 106.117 119.882 109.086 119.882 112.749C119.882 116.412 116.912 119.382 113.249 119.382C109.586 119.382 106.617 116.412 106.617 112.749ZM86.72 106.117C83.0571 106.117 80.0877 109.086 80.0877 112.749C80.0877 116.412 83.0571 119.382 86.72 119.382C90.3829 119.382 93.3523 116.412 93.3523 112.749C93.3523 109.086 90.3829 106.117 86.72 106.117ZM53.5585 112.749C53.5585 109.086 56.5279 106.117 60.1908 106.117C63.8537 106.117 66.8231 109.086 66.8231 112.749C66.8231 116.412 63.8537 119.382 60.1908 119.382C56.5279 119.382 53.5585 116.412 53.5585 112.749ZM33.6615 106.117C29.9986 106.117 27.0292 109.086 27.0292 112.749C27.0292 116.412 29.9986 119.382 33.6615 119.382C37.3244 119.382 40.2938 116.412 40.2938 112.749C40.2938 109.086 37.3244 106.117 33.6615 106.117ZM27.0292 139.278C27.0292 135.616 29.9986 132.646 33.6615 132.646C37.3244 132.646 40.2938 135.616 40.2938 139.278C40.2938 142.941 37.3244 145.911 33.6615 145.911C29.9986 145.911 27.0292 142.941 27.0292 139.278ZM60.1908 132.646C56.5279 132.646 53.5585 135.616 53.5585 139.278C53.5585 142.941 56.5279 145.911 60.1908 145.911C63.8537 145.911 66.8231 142.941 66.8231 139.278C66.8231 135.616 63.8537 132.646 60.1908 132.646ZM80.0877 139.278C80.0877 135.616 83.0571 132.646 86.72 132.646C90.3829 132.646 93.3523 135.616 93.3523 139.278C93.3523 142.941 90.3829 145.911 86.72 145.911C83.0571 145.911 80.0877 142.941 80.0877 139.278ZM113.249 132.646C109.586 132.646 106.617 135.616 106.617 139.278C106.617 142.941 109.586 145.911 113.249 145.911C116.912 145.911 119.882 142.941 119.882 139.278C119.882 135.616 116.912 132.646 113.249 132.646Z" fill="#3F7F30"/>
</svg>
