<svg width="27" height="25" viewBox="0 0 27 25" fill="none" xmlns="http://www.w3.org/2000/svg">
<g id="&#240;&#159;&#166;&#134; icon &#34;home&#34;">
<path id="Vector" d="M12.2521 0.331944C12.4929 0.118104 12.8038 0 13.1259 0C13.4479 0 13.7588 0.118104 13.9996 0.331944L25.8421 10.8587C26.0897 11.0938 26.2361 11.416 26.2505 11.7571C26.265 12.0983 26.1462 12.4317 25.9194 12.6869C25.6925 12.9421 25.3753 13.0991 25.0349 13.1248C24.6944 13.1505 24.3573 13.0428 24.0947 12.8245L23.6526 12.4337V22.3683C23.6526 23.0663 23.3753 23.7357 22.8818 24.2292C22.3882 24.7227 21.7189 25 21.0209 25H5.23082C4.53285 25 3.86348 24.7227 3.36994 24.2292C2.8764 23.7357 2.59914 23.0663 2.59914 22.3683V12.4337L2.15702 12.8245C1.89445 13.0428 1.55732 13.1505 1.21685 13.1248C0.876371 13.0991 0.559213 12.9421 0.33237 12.6869C0.105528 12.4317 -0.0132342 12.0983 0.001173 11.7571C0.0155802 11.416 0.162028 11.0938 0.40958 10.8587L12.2521 0.331944ZM5.23082 10.0915V22.3683H9.17834V15.7891C9.17834 15.4401 9.31697 15.1054 9.56374 14.8587C9.81051 14.6119 10.1452 14.4733 10.4942 14.4733H15.7575C16.1065 14.4733 16.4412 14.6119 16.688 14.8587C16.9347 15.1054 17.0734 15.4401 17.0734 15.7891V22.3683H21.0209V10.0928L13.1259 3.07547L5.23082 10.0915ZM14.4417 22.3683V17.105H11.81V22.3683H14.4417Z" fill="#3F7F30"/>
</g>
</svg>
