<svg width="173" height="173" viewBox="0 0 173 173" fill="none" xmlns="http://www.w3.org/2000/svg">
<path d="M103.964 97.3424C110.43 89.2377 113.966 78.6326 112.069 66.9929C109.31 50.2663 95.6007 36.9022 78.7878 34.8329C56.6292 32.0738 37.747 48.0245 35.4191 68.976H44.0411C46.1104 54.7497 57.9225 43.7135 72.5799 43.11C89.1342 42.5065 103.619 56.1292 103.964 72.6835C104.309 89.6688 90.6861 103.464 73.787 103.464C72.3213 103.464 70.8555 103.205 69.476 103.033V111.655C70.9417 111.827 72.3213 112.086 73.787 112.086C82.9263 112.086 91.2034 108.81 97.8424 103.464L125.605 131.227C127.33 132.951 130.002 132.951 131.727 131.227C133.451 129.502 133.451 126.83 131.727 125.105L103.964 97.3424Z" fill="#888381"/>
<path d="M54.5599 83.8921C52.8355 82.1677 50.1627 82.1677 48.4383 83.8921L39.299 93.0314L30.1597 83.8921C28.4353 82.1677 25.7625 82.1677 24.0381 83.8921C22.3137 85.6165 22.3137 88.2893 24.0381 90.0137L33.1774 99.153L24.0381 108.292C22.3137 110.017 22.3137 112.69 24.0381 114.414C25.7625 116.138 28.4353 116.138 30.1597 114.414L39.299 105.275L48.4383 114.414C50.1627 116.138 52.8355 116.138 54.5599 114.414C56.2843 112.69 56.2843 110.017 54.5599 108.292L45.4206 99.153L54.5599 90.0137C56.1981 88.2893 56.1981 85.6165 54.5599 83.8921Z" fill="#888381"/>
</svg>
