<svg width="189" height="185" viewBox="0 0 189 185" fill="none" xmlns="http://www.w3.org/2000/svg">
<path d="M137.83 51.11L180.94 70.7055V172.602L126.073 149.087M126.073 149.087L63.3673 172.602M126.073 149.087V94.22M63.3673 172.602L8.5 149.087V47.1909L47.6909 62.8673M63.3673 172.602V94.22M94.72 127.71C94.72 127.71 47.6909 90.3009 47.6909 55.0291C47.6909 25.6359 71.2055 8 94.72 8C118.235 8 141.749 25.6359 141.749 55.0291C141.749 90.3009 94.72 127.71 94.72 127.71ZM102.558 55.0291C102.558 50.6998 99.0493 47.1909 94.72 47.1909C90.3907 47.1909 86.8818 50.6998 86.8818 55.0291C86.8818 59.3584 90.3907 62.8673 94.72 62.8673C99.0493 62.8673 102.558 59.3584 102.558 55.0291Z" stroke="#3F7F30" stroke-width="15.6764"/>
</svg>
